<?xml version="1.0" encoding="iso-8859-1"?>
<!-- Generator: Adobe Illustrator 19.0.0, SVG Export Plug-In . SVG Version: 6.00 Build 0)  -->
<svg version="1.1" id="Layer_1" xmlns="http://www.w3.org/2000/svg" xmlns:xlink="http://www.w3.org/1999/xlink" x="0px" y="0px"
	 viewBox="0 0 297.001 297.001" style="enable-background:new 0 0 297.001 297.001;" xml:space="preserve">
<g>
	<g>
		<g>
			<g>
				<circle style="fill:#F86E51;" cx="148.5" cy="148.5" r="148.5"/>
			</g>
		</g>
	</g>
	<path style="fill:#DD513A;" d="M296.992,147.885L223.427,74.32c-8.79,8.709-17.534,17.924-28.927,21.18c-29,9-44,34-47,61
		c-1,10,1,19,2,29c2,21-2,40-4,61c0,5-4,15-11,17c-10.322,2.581-20.505-0.147-30.532-2.722l35.932,35.968
		c2.847,0.163,5.713,0.254,8.601,0.254c82.014,0,148.5-66.486,148.5-148.5C297,148.294,296.993,148.091,296.992,147.885z"/>
	<g>
		<path style="fill:#32373B;" d="M123.75,268.5c-16.129,0-29.25-13.121-29.25-29.25c0-2.485,2.015-4.5,4.5-4.5s4.5,2.015,4.5,4.5
			c0,11.166,9.084,20.25,20.25,20.25S144,250.416,144,239.25V33c0-2.485,2.015-4.5,4.5-4.5s4.5,2.015,4.5,4.5v206.25
			C153,255.379,139.879,268.5,123.75,268.5z"/>
	</g>
	<g>
		<path style="fill:#ECF0F1;" d="M148.5,43C90.327,43,43,90.327,43,148.5c0,3.59,2.91,6.5,6.5,6.5s6.5-2.91,6.5-6.5
			c0-5.514,4.486-10,10-10s10,4.486,10,10c0,3.59,2.91,6.5,6.5,6.5s6.5-2.91,6.5-6.5c0-5.514,4.486-10,10-10s10,4.486,10,10
			c0,3.59,2.91,6.5,6.5,6.5s6.5-2.91,6.5-6.5c0-5.514,4.486-10,10-10c5.514,0,10,4.486,10,10c0,3.59,2.91,6.5,6.5,6.5
			s6.5-2.91,6.5-6.5c0-5.514,4.486-10,10-10s10,4.486,10,10c0,3.59,2.91,6.5,6.5,6.5s6.5-2.91,6.5-6.5c0-5.514,4.486-10,10-10
			s10,4.486,10,10c0,3.59,2.91,6.5,6.5,6.5s6.5-2.91,6.5-6.5c0-5.514,4.486-10,10-10s10,4.486,10,10c0,3.59,2.91,6.5,6.5,6.5
			s6.5-2.91,6.5-6.5C254,90.327,206.673,43,148.5,43z"/>
	</g>
	<g>
		<path style="fill:#D0D5D9;" d="M148.5,43c-0.111,0-0.222,0.004-0.333,0.004v111.979c0.111,0.006,0.221,0.017,0.333,0.017
			c3.59,0,6.5-2.91,6.5-6.5c0-5.514,4.486-10,10-10s10,4.486,10,10c0,3.59,2.91,6.5,6.5,6.5s6.5-2.91,6.5-6.5
			c0-5.514,4.486-10,10-10s10,4.486,10,10c0,3.59,2.91,6.5,6.5,6.5s6.5-2.91,6.5-6.5c0-5.514,4.486-10,10-10s10,4.486,10,10
			c0,3.59,2.91,6.5,6.5,6.5s6.5-2.91,6.5-6.5C254,90.327,206.673,43,148.5,43z"/>
	</g>
</g>
<g>
</g>
<g>
</g>
<g>
</g>
<g>
</g>
<g>
</g>
<g>
</g>
<g>
</g>
<g>
</g>
<g>
</g>
<g>
</g>
<g>
</g>
<g>
</g>
<g>
</g>
<g>
</g>
<g>
</g>
</svg>
